<?xml version="1.0" standalone="no"?>
<!DOCTYPE svg PUBLIC "-//W3C//DTD SVG 20010904//EN"
 "http://www.w3.org/TR/2001/REC-SVG-20010904/DTD/svg10.dtd">
<svg version="1.0" xmlns="http://www.w3.org/2000/svg"
 width="260.000000pt" height="260.000000pt" viewBox="0 0 260.000000 260.000000"
 preserveAspectRatio="xMidYMid meet">
<metadata>
Created by potrace 1.11, written by Peter Selinger 2001-2013
</metadata>
<g transform="translate(0.000000,260.000000) scale(0.100000,-0.100000)"
fill="#000000" stroke="none">
<path d="M1157 2373 c-3 -5 -185 -480 -405 -1058 -220 -577 -403 -1058 -407
-1068 -7 -16 3 -17 146 -15 l153 3 117 320 117 320 413 0 414 0 115 -322 115
-323 149 0 148 0 -6 23 c-3 12 -178 495 -389 1072 l-382 1050 -147 3 c-81 1
-149 -1 -151 -5z m317 -839 c75 -215 136 -397 136 -403 0 -8 -88 -11 -315 -11
-235 0 -315 3 -315 12 0 9 258 726 313 868 9 24 10 23 27 -25 9 -27 79 -226
154 -441z"/>
</g>
</svg>
