<?xml version="1.0" standalone="no"?>
<!DOCTYPE svg PUBLIC "-//W3C//DTD SVG 20010904//EN"
 "http://www.w3.org/TR/2001/REC-SVG-20010904/DTD/svg10.dtd">
<svg version="1.0" xmlns="http://www.w3.org/2000/svg"
 width="300.000000pt" height="300.000000pt" viewBox="0 0 300.000000 300.000000"
 preserveAspectRatio="xMidYMid meet">
<metadata>
Created by potrace 1.11, written by Peter Selinger 2001-2013
</metadata>
<g transform="translate(0.000000,300.000000) scale(0.100000,-0.100000)"
fill="#000000" stroke="none">
<path d="M1374 2732 c-31 -3 -32 -5 -113 -220 -45 -119 -91 -237 -101 -262
-10 -25 -28 -70 -39 -100 -18 -52 -535 -1408 -548 -1440 -3 -8 -7 -19 -9 -25
-2 -5 -39 -103 -83 -217 l-79 -208 177 0 177 0 33 92 c18 51 55 151 81 223 27
72 74 200 105 285 l56 155 467 -1 c257 -1 470 -2 475 -3 4 0 7 -6 7 -12 0 -6
24 -79 54 -163 30 -83 87 -241 126 -352 40 -110 75 -206 79 -213 5 -8 55 -11
179 -9 l171 3 -95 260 c-53 143 -117 321 -144 395 -27 74 -62 171 -78 215 -16
44 -113 312 -216 595 -103 283 -191 524 -196 535 -5 11 -43 117 -86 235 -42
118 -80 219 -84 223 -7 8 -254 15 -316 9z m229 -672 c193 -545 260 -737 261
-750 1 -12 -48 -14 -352 -15 -195 0 -357 2 -362 5 -7 4 108 327 356 1000 6 16
10 7 97 -240z"/>
</g>
</svg>
