<?xml version="1.0" encoding="utf-8"?>
<!-- Generator: Adobe Illustrator 19.2.1, SVG Export Plug-In . SVG Version: 6.00 Build 0)  -->
<svg version="1.1" xmlns="http://www.w3.org/2000/svg" xmlns:xlink="http://www.w3.org/1999/xlink" x="0px" y="0px"
	 viewBox="0 0 31 33" style="enable-background:new 0 0 31 33;" xml:space="preserve">
<style type="text/css">
	.st0{fill:none;stroke:#CCCCCC;stroke-miterlimit:10;}
	.st1{fill:#A6A6A6;}
	.st2{fill:none;stroke:#6D767D;stroke-miterlimit:10;}
	.st3{fill:#999999;}
	.st4{fill:#D51428;}
	.st5{fill:#F7F7F7;}
	.st6{fill:#231F20;}
</style>
<g id="lines">
</g>
<g id="arrows">
	<path id="tel" class="st4" d="M27.3,31.3c-2.8,3.4-9.5-0.9-12.2-2.7C11,25.9,7.4,22.1,4.7,17.9C2.5,14.5-1.4,7.9,1.3,4
		c1-1.5,3.2-4.3,4.9-3.4c1.1,0.6,4.6,4.3,5.2,5.6c0.6,1.4-0.6,2.2-1.5,3.1C8.2,11,7.4,12,8.6,14.4c1.9,3.8,4.9,7.1,8.6,9.2
		c3.3,1.9,3.8-0.8,6.2-2.5c1.1-0.8,1.4-0.5,2.3,0.3c1.1,1,2,2.2,3,3.2c0.6,0.6,1.9,1.6,2,2.5C30.7,28.5,28.1,30.3,27.3,31.3
		C27.3,31.3,27.3,31.3,27.3,31.3z"/>
</g>
<g id="logo">
</g>
<g id="back">
</g>
<g id="Layer_4">
</g>
</svg>
