<?xml version="1.0" encoding="utf-8"?>
<!-- Generator: Adobe Illustrator 19.2.1, SVG Export Plug-In . SVG Version: 6.00 Build 0)  -->
<svg version="1.1" id="Layer_1" xmlns="http://www.w3.org/2000/svg" xmlns:xlink="http://www.w3.org/1999/xlink" x="0px" y="0px"
	 viewBox="0 0 15 15" style="enable-background:new 0 0 15 15;" xml:space="preserve">
<style type="text/css">
	.st0{fill:#B2B2B2;}
</style>
<g id="black">
	<g id="linkedin" transform="translate(16.000000, 17.000000)">
		<path class="st0" d="M-12.9-2v-9.7h-3V-2H-12.9z M-12.9-15.1c0-0.9-0.6-1.5-1.5-1.5c-0.9,0-1.5,0.7-1.5,1.5c0,0.8,0.6,1.5,1.5,1.5
			h0C-13.5-13.6-12.9-14.2-12.9-15.1z M-8.1-2v-5.5c0-0.3,0-0.6,0.1-0.8c0.2-0.6,0.8-1.2,1.7-1.2c1.2,0,1.9,0.7,1.9,2V-2h3v-5.6
			c0-3-1.6-4.4-3.8-4.4c-1.8,0-2.5,1-3,1.7l0-1.3h-3c0,0.9,0,9.7,0,9.7H-8.1z"/>
	</g>
</g>
</svg>
