<?xml version="1.0" encoding="utf-8"?>
<!-- Generator: Adobe Illustrator 19.2.1, SVG Export Plug-In . SVG Version: 6.00 Build 0)  -->
<svg version="1.1" id="Layer_1" xmlns="http://www.w3.org/2000/svg" xmlns:xlink="http://www.w3.org/1999/xlink" x="0px" y="0px"
	 viewBox="0 0 22 15" style="enable-background:new 0 0 22 15;" xml:space="preserve">
<style type="text/css">
	.st0{fill:#B2B2B2;}
</style>
<path class="st0" d="M11,8.2L11,8.2c0.2,0,0.3,0,0.4-0.1l0,0c0,0,0,0,0,0l0.4-0.3l9-7.5L20.9,0H1.2c0,0.1,0,0.1-0.1,0.2L10.5,8
	C10.7,8.1,10.9,8.2,11,8.2L11,8.2z M0,1.8v10.8c0,0.1,0.1,0.1,0.1,0.1c0,0,0.1,0,0.1,0l6.7-5.4L0.2,1.7C0.2,1.7,0.1,1.7,0,1.8
	C0,1.8,0,1.8,0,1.8z M15.1,7.3l6.6,5.3c0.1,0.1,0.2,0.1,0.3,0c0,0,0-0.1,0-0.1V2c0-0.1-0.1-0.2-0.2-0.2c0,0-0.1,0-0.1,0L15.1,7.3z
	 M12,10c-0.6,0.5-1.4,0.5-2,0L8.4,8.7l-7.5,6.2v0C0.9,15,0.9,15,1,15c0,0,0,0,0,0h20c0.1,0,0.1,0,0.1-0.1v0l-7.5-6.1L12,10z"/>
</svg>
