<?xml version="1.0" encoding="utf-8"?>
<!-- Generator: Adobe Illustrator 19.2.1, SVG Export Plug-In . SVG Version: 6.00 Build 0)  -->
<svg version="1.1" xmlns="http://www.w3.org/2000/svg" xmlns:xlink="http://www.w3.org/1999/xlink" x="0px" y="0px"
	 viewBox="0 0 24 39" style="enable-background:new 0 0 24 39;" xml:space="preserve">
<style type="text/css">
	.st0{fill:none;stroke:#CCCCCC;stroke-miterlimit:10;}
	.st1{fill:#A6A6A6;}
	.st2{fill:none;stroke:#6D767D;stroke-miterlimit:10;}
	.st3{fill:#999999;}
	.st4{fill:#D51428;}
	.st5{fill:#F7F7F7;}
	.st6{fill:#231F20;}
</style>
<g id="lines">
</g>
<g id="arrows">
	<path class="st4" d="M23.4,14.4c0.1-0.7,0.2-1.4,0.2-2.1c0-6.6-5.2-11.9-11.6-11.9S0.4,5.7,0.4,12.3c0,0.7,0,1.2,0.2,2.1
		c0.3,1.4,1,3.2,1.6,4.3L11.5,39c0,0,8.6-17.1,9.8-19.6C22.5,16.8,23.3,15,23.4,14.4z M12,7.3c2.7,0,4.8,2.2,4.8,4.9
		s-2.2,4.9-4.8,4.9S7.2,15,7.2,12.3S9.3,7.3,12,7.3z"/>
</g>
<g id="logo">
</g>
<g id="back">
</g>
<g id="Layer_4">
</g>
</svg>
