<?xml version="1.0" encoding="utf-8"?>
<!-- Generator: Adobe Illustrator 19.2.1, SVG Export Plug-In . SVG Version: 6.00 Build 0)  -->
<svg version="1.1" id="Layer_1" xmlns="http://www.w3.org/2000/svg" xmlns:xlink="http://www.w3.org/1999/xlink" x="0px" y="0px"
	 viewBox="0 0 7 15" style="enable-background:new 0 0 7 15;" xml:space="preserve">
<style type="text/css">
	.st0{fill:#B2B2B2;}
</style>
<g>
	<path id="Facebook" class="st0" d="M1.5,3.2c0,0.4,0,2,0,2H0v2.5h1.5V15h3V7.7h2c0,0,0.2-1.2,0.3-2.5c-0.3,0-2.3,0-2.3,0
		s0-1.4,0-1.7C4.5,3.3,4.8,3,5.2,3c0.3,0,1,0,1.6,0c0-0.3,0-1.5,0-2.6c-0.8,0-1.8,0-2.2,0C1.4,0.4,1.5,2.9,1.5,3.2z"/>
</g>
</svg>
